# xmcd
#
# Track frame offsets: 
#        150
#        12242
#        25093
#        39002
#        56344
#        68132
#        90034
#        103123
#        116445
#        131283
#        145916
#        158419
#
# Disc length: 2294 seconds
#
# Revision: 0
# Processed by: cddbd v1.5.2PL0 Copyright (c) Steve Scherf et al.
# Submitted via: ExactAudioCopyFreeDBPlugin 1.0
#
DISCID=8008f40c
DTITLE=Dick van AltenaUnknown Artist - Flowers From The Moon
DYEAR=2017
DGENRE=Hollands
TTITLE0=Stay With Me
TTITLE1=Could It Be Love
TTITLE2=Julie-An
TTITLE3=Waikiki
TTITLE4=I Guess Things Happen that Way
TTITLE5=Juanita Is Waiting
TTITLE6=Foolish Heart
TTITLE7=Distant Drums
TTITLE8=The Bottom Of The Bottle
TTITLE9=All My Love
TTITLE10=Some Broken Hearts Never Mend
TTITLE11=Flowers From the Moon
EXTD=
EXTT0=
EXTT1=
EXTT2=
EXTT3=
EXTT4=
EXTT5=
EXTT6=
EXTT7=
EXTT8=
EXTT9=
EXTT10=
EXTT11=
PLAYORDER=
